<svg width="21" height="21" viewBox="0 0 21 21" fill="none" xmlns="http://www.w3.org/2000/svg">
<path d="M10.5 21C15.0718 21 18.9611 18.0782 20.4025 14C20.7895 12.9053 21 11.7272 21 10.5C21 9.27278 20.7895 8.09473 20.4025 7C18.9611 2.92183 15.0718 0 10.5 0C5.92823 0 2.0389 2.92183 0.59747 7C0.21054 8.09473 0 9.27278 0 10.5C0 11.7272 0.21054 12.9053 0.59747 14C2.0389 18.0782 5.92823 21 10.5 21Z" fill="#F4F4F4"/>
<path fill-rule="evenodd" clip-rule="evenodd" d="M20.4025 14C18.9611 18.0782 15.0718 21 10.5 21C5.92823 21 2.0389 18.0782 0.59747 14H20.4025Z" fill="#D52B1E"/>
<path fill-rule="evenodd" clip-rule="evenodd" d="M0.59747 7C2.0389 2.92183 5.92823 0 10.5 0C15.0718 0 18.9611 2.92183 20.4025 7H0.59747Z" fill="white"/>
<path fill-rule="evenodd" clip-rule="evenodd" d="M0.59747 14C0.21054 12.9053 0 11.7272 0 10.5C0 9.27278 0.21054 8.09473 0.59747 7H20.4025C20.7895 8.09473 21 9.27278 21 10.5C21 11.7272 20.7895 12.9053 20.4025 14H0.59747Z" fill="#0039A6"/>
</svg>
